<?xml version="1.0" encoding="utf-8"?>
<!-- Generator: Adobe Illustrator 26.3.1, SVG Export Plug-In . SVG Version: 6.00 Build 0)  -->
<svg version="1.1" id="Layer_1" xmlns="http://www.w3.org/2000/svg" xmlns:xlink="http://www.w3.org/1999/xlink" x="0px" y="0px"
	 viewBox="0 0 290.5 68" style="enable-background:new 0 0 290.5 68;" xml:space="preserve">
<style type="text/css">
	.st0{fill:#1A1818;}
	.st1{fill:#3D73FF;}
	.st2{enable-background:new    ;}
</style>
<g transform="translate(1729.496 -10279.558)">
	<g transform="translate(-1864.646 10222.956)">
		<path class="st0" d="M171.5,56.6c-20.1,0-36.3,16.3-36.3,36.3c0,13.1,7.1,25.2,18.5,31.6l3.5-12.5l-10.6-6.5
			c0,0,14.2-11.9,14.2-12c3.6,13.5,11,11.2,11,11.2l-1.4-6.4l18.4-9.5l-1.8,8.4l17.3,11.1c8.5-18.2,0.7-39.8-17.4-48.3
			C182.1,57.8,176.8,56.6,171.5,56.6L171.5,56.6z M170,86.2c-13.7,0.5-24.8-2.1-25-5.7c-0.1-2,3.3-4,8.7-5.4l1.4-11.3
			c-0.1-2.2,6.4-4.1,14.6-4.4c8.1-0.3,14.8,1.2,14.8,3.4l1.3,11.3c5.3,1,8.7,2.7,8.8,4.7C194.7,82.4,183.7,85.8,170,86.2L170,86.2z"
			/>
		<path class="st1" d="M170,79.8c-7.4,0.3-13.7-1.2-15.5-3.5c-0.3,0.4-0.5,0.9-0.5,1.3c0.1,2.8,7.3,4.9,16,4.6s15.7-2.9,15.6-5.7
			c0-0.4-0.2-0.9-0.5-1.2C183.4,77.6,177.3,79.5,170,79.8z"/>
	</g>
	<g class="st2">
		<path class="st0" d="M-1622.5,10295.7v40.8h-6v-40.8h-13v-5.7h32v5.7H-1622.5z"/>
		<path class="st0" d="M-1602.2,10336.6h-6v-31.8h5.7v5.2h0.3c0.6-1.7,1.9-3.1,3.7-4.3c1.9-1.2,3.7-1.8,5.6-1.8
			c1.7,0,3.2,0.3,4.4,0.8l-1.8,5.8c-0.7-0.3-1.9-0.5-3.5-0.5c-2.3,0-4.2,0.9-5.9,2.7c-1.7,1.8-2.5,3.9-2.5,6.4V10336.6z"/>
		<path class="st0" d="M-1573.8,10303.7c4.4,0,7.9,1.2,10.5,3.5c2.6,2.4,3.8,5.6,3.8,9.7v19.6h-5.7v-4.4h-0.3
			c-2.5,3.6-5.8,5.5-9.9,5.5c-3.5,0-6.4-1-8.8-3.1c-2.4-2.1-3.5-4.7-3.5-7.8c0-3.3,1.2-5.9,3.7-7.9c2.5-2,5.8-2.9,10-2.9
			c3.6,0,6.5,0.7,8.8,2v-1.4c0-2.1-0.8-3.8-2.5-5.3c-1.6-1.5-3.6-2.2-5.8-2.2c-3.3,0-6,1.4-7.9,4.2l-5.3-3.3
			C-1583.8,10305.7-1579.5,10303.7-1573.8,10303.7z M-1581.5,10326.8c0,1.6,0.7,2.9,2,3.9c1.3,1,2.9,1.6,4.6,1.6
			c2.5,0,4.8-0.9,6.7-2.8c2-1.9,3-4.1,3-6.6c-1.9-1.5-4.5-2.2-7.8-2.2c-2.4,0-4.5,0.6-6.1,1.8
			C-1580.7,10323.6-1581.5,10325.1-1581.5,10326.8z"/>
		<path class="st0" d="M-1538.5,10337.6c-4.7,0-8.6-1.6-11.8-4.8c-3.1-3.3-4.6-7.3-4.6-12.2c0-4.9,1.5-8.9,4.6-12.2
			c3.1-3.2,7-4.8,11.8-4.8c3.2,0,6.1,0.8,8.5,2.4s4.2,3.9,5.5,6.7l-5.5,2.3c-1.7-4-4.7-6-8.9-6c-2.7,0-5.1,1.1-7.1,3.3
			c-2,2.2-2.9,4.9-2.9,8.2s1,6,2.9,8.2c2,2.2,4.4,3.3,7.1,3.3c4.4,0,7.5-2,9.2-6l5.3,2.3c-1.2,2.9-3,5.1-5.5,6.7
			C-1532.3,10336.8-1535.2,10337.6-1538.5,10337.6z"/>
		<path class="st0" d="M-1491.1,10336.6h-7.2l-9.9-15l-4.9,4.8v10.2h-6v-46.5h6v28.7l13.8-14h7.7v0.3l-12.4,12.3l13,19V10336.6z"/>
		<path class="st0" d="M-1480,10293.7c0,1.2-0.4,2.2-1.2,3c-0.8,0.8-1.8,1.2-3,1.2s-2.2-0.4-3-1.2c-0.8-0.8-1.2-1.8-1.2-3
			s0.4-2.2,1.2-3c0.8-0.8,1.8-1.2,3-1.2s2.2,0.4,3,1.2C-1480.4,10291.6-1480,10292.5-1480,10293.7z M-1481.2,10304.7v31.8h-6v-31.8
			H-1481.2z"/>
		<path class="st0" d="M-1460.4,10337.6c-4.2,0-7.7-1.6-10.7-4.9c-2.9-3.3-4.4-7.3-4.4-12c0-4.7,1.5-8.7,4.4-12
			c3-3.3,6.6-4.9,10.7-4.9c2.3,0,4.5,0.5,6.4,1.5c1.9,1,3.4,2.3,4.5,4h0.3l-0.3-4.4v-14.7h6v46.5h-5.7v-4.4h-0.3c-1,1.6-2.5,3-4.5,4
			C-1456,10337.1-1458.1,10337.6-1460.4,10337.6z M-1459.5,10332.1c2.9,0,5.4-1.1,7.2-3.2c2-2.1,2.9-4.9,2.9-8.3
			c0-3.3-1-6.1-2.9-8.3c-1.9-2.2-4.3-3.2-7.2-3.2c-2.9,0-5.3,1.1-7.2,3.2c-2,2.2-2.9,4.9-2.9,8.3c0,3.4,1,6.1,2.9,8.3
			C-1464.7,10331-1462.3,10332.1-1459.5,10332.1z"/>
	</g>
</g>
</svg>
